<svg id="kity_svg_6" xmlns="http://www.w3.org/2000/svg" xmlns:xlink="http://www.w3.org/1999/xlink" version="1.1" width="2979" height="1090" style="background: rgb(251, 251, 251); visibility: visible;" viewBox="0 0 2979 1090"><defs id="kity_defs_7"><linearGradient id="kity_linearGradient_17" x1="0" y1="0" x2="0" y2="1"><stop id="kity_stop_18" offset="0" stop-color="rgb(255, 255, 255)"></stop><stop id="kity_stop_19" offset="1" stop-color="rgb(204, 204, 204)"></stop></linearGradient><marker id="kity_marker_2" orient="auto" refX="6" refY="0" viewBox="-7 -7 14 14" markerWidth="7" markerHeight="7" markerUnits="userSpaceOnUse"><path id="kity_path_3" fill="rgb(115, 161, 191)" stroke="none" d="M6,0A6,6,0,1,1,-6,0A6,6,0,1,1,6,0"></path></marker></defs><g id="kity_g_8"><g id="minder1" text-rendering="optimize-speed"><g id="minder_connect_group1"><path id="kity_path_31" fill="none" stroke="rgb(115, 161, 191)" stroke-width="1" d="M1599.5,270.5v30h-1240V320.5"></path><path id="kity_path_33" fill="none" stroke="rgb(115, 161, 191)" stroke-width="1" d="M359.5,551.5v20h-260V586.5"></path><path id="kity_path_35" fill="none" stroke="rgb(115, 161, 191)" stroke-width="1" d="M359.5,551.5v20h-60.5V586.5"></path><path id="kity_path_37" fill="none" stroke="rgb(115, 161, 191)" stroke-width="1" d="M359.5,551.5v20h120V586.5"></path><path id="kity_path_39" fill="none" stroke="rgb(115, 161, 191)" stroke-width="1" d="M359.5,551.5v20h280V586.5"></path><path id="kity_path_41" fill="none" stroke="rgb(115, 161, 191)" stroke-width="1" d="M1599.5,270.5v30h-662.5V320.5"></path><path id="kity_path_43" fill="none" stroke="rgb(115, 161, 191)" stroke-width="1" d="M937.5,551.5v20h-112.5V586.5"></path><path id="kity_path_45" fill="none" stroke="rgb(115, 161, 191)" stroke-width="1" d="M937.5,551.5v20h105.5V586.5"></path><path id="kity_path_47" fill="none" stroke="rgb(115, 161, 191)" stroke-width="1" d="M1599.5,270.5v30h107V320.5"></path><path id="kity_path_49" fill="none" stroke="rgb(115, 161, 191)" stroke-width="1" d="M1706.5,551.5v20h-255.5V585.5"></path><path id="kity_path_51" fill="none" stroke="rgb(115, 161, 191)" stroke-width="1" d="M1451.5,812.5v15h-192.5V842.5"></path><path id="kity_path_53" fill="none" stroke="rgb(115, 161, 191)" stroke-width="1" d="M1451.5,812.5v15h7V842.5"></path><path id="kity_path_55" fill="none" stroke="rgb(115, 161, 191)" stroke-width="1" d="M1451.5,812.5v15h200V842.5"></path><path id="kity_path_57" fill="none" stroke="rgb(115, 161, 191)" stroke-width="1" d="M1706.5,551.5v20h253V586.5"></path><path id="kity_path_59" fill="none" stroke="rgb(115, 161, 191)" stroke-width="1" d="M1959.5,813.5v15h-109V843.5"></path><path id="kity_path_61" fill="none" stroke="rgb(115, 161, 191)" stroke-width="1" d="M1959.5,813.5v15h105V843.5"></path><path id="kity_path_63" fill="none" stroke="rgb(115, 161, 191)" stroke-width="1" d="M1599.5,270.5v30h685V320.5"></path><path id="kity_path_65" fill="none" stroke="rgb(115, 161, 191)" stroke-width="1" d="M2284.5,551.5v20h0V586.5"></path><path id="kity_path_67" fill="none" stroke="rgb(115, 161, 191)" stroke-width="1" d="M1599.5,270.5v30h903.5V320.5"></path><path id="kity_path_69" fill="none" stroke="rgb(115, 161, 191)" stroke-width="1" d="M2503.5,531.5v20h-48.5V566.5"></path><path id="kity_path_71" fill="none" stroke="rgb(115, 161, 191)" stroke-width="1" d="M2503.5,531.5v20h49.5V566.5"></path><path id="kity_path_73" fill="none" stroke="rgb(115, 161, 191)" stroke-width="1" d="M1599.5,270.5v30h1072.5V320.5"></path><path id="kity_path_75" fill="none" stroke="rgb(115, 161, 191)" stroke-width="1" d="M1599.5,270.5v30h1195V320.5"></path><path id="kity_path_77" fill="none" stroke="rgb(115, 161, 191)" stroke-width="1" d="M1599.5,270.5v30h1318V320.5"></path></g><g id="minder_node1"><path id="node_outline1" fill="rgb(115, 161, 191)" stroke="rgb(57, 80, 96)" d="M1499.5,20.5h200a5,5,0,0,1,5,5v240a5,5,0,0,1,-5,5h-200a5,5,0,0,1,-5,-5v-240a5,5,0,0,1,5,-5z" stroke-width="3"></path><g id="node_text1" fill="white"><text id="kity_text_22" text-rendering="inherit" font-size="16" dy=".8em" y="240.09999990463257" x="1574.5">李洛能</text></g><image id="kity_image_145" xmlns:xlink="http://www.w3.org/1999/xlink" xlink:href="http://imgtu.lishiquwen.com/20151221/217eadb332e6f9f69c7884157e632e64.jpg" x="1518.5" y="32.5" width="162" height="200"></image></g><g id="kity_g_12"><path id="kity_path_13" fill="none" stroke="none" d="M1574.5,250.5h0v0h0z"></path></g><g id="kity_g_14"><path id="kity_path_15" fill="none" stroke="none" d="M1574.5,250.5h0v0h0z"></path><path id="kity_path_16" fill="none" stroke="none"></path></g><g id="minder_node2"><g id="node_expander5" style="cursor: pointer;"><path id="kity_path_183" fill="white" stroke="gray" d="M365.5,313.5A6,6,0,1,1,353.5,313.5A6,6,0,1,1,365.5,313.5"></path><path id="kity_path_184" fill="none" stroke="gray" d="M355,313.5L364,313.5"></path></g><path id="node_outline6" fill="rgb(238, 243, 246)" stroke="rgb(115, 161, 191)" d="M242.5,320.5h234a3,3,0,0,1,3,3v225a3,3,0,0,1,-3,3h-234a3,3,0,0,1,-3,-3v-225a3,3,0,0,1,3,-3z" stroke-width="1"></path><g id="node_text6" fill="black"><text id="kity_text_87" text-rendering="inherit" font-size="14" dy=".8em" y="529.4000000953674" x="337.5">宋世荣</text></g><image id="kity_image_130" xmlns:xlink="http://www.w3.org/1999/xlink" xlink:href="http://ru.qqgfw.com/Picture/KungfuArticle/20091014151942481471.jpg" x="259.5" y="326.5" width="200" height="200"></image></g><g id="minder_node3"><g id="node_expander1" display="none" style="cursor: pointer;"><path id="kity_path_171" fill="white" stroke="gray" d="M105.5,580.5A6,6,0,1,1,93.5,580.5A6,6,0,1,1,105.5,580.5"></path><path id="kity_path_172" fill="none" stroke="gray"></path></g><path id="node_outline2" fill="none" stroke="none" d="M25.5,586.5h148a5,5,0,0,1,5,5v217a5,5,0,0,1,-5,5h-148a5,5,0,0,1,-5,-5v-217a5,5,0,0,1,5,-5z"></path><g id="node_text2" fill="black"><text id="kity_text_79" text-rendering="inherit" font-size="12" dy=".8em" y="794.7000000476837" x="80.5">宋虎臣</text></g><image id="kity_image_126" xmlns:xlink="http://www.w3.org/1999/xlink" xlink:href="http://s4.sinaimg.cn/bmiddle/40f07f4e0fae0ca7587e3" x="30.5" y="591.5" width="138" height="200"></image></g><g id="minder_node4"><g id="node_expander2" display="none" style="cursor: pointer;"><path id="kity_path_174" fill="white" stroke="gray" d="M305,580.5A6,6,0,1,1,293,580.5A6,6,0,1,1,305,580.5"></path><path id="kity_path_175" fill="none" stroke="gray"></path></g><path id="node_outline3" fill="none" stroke="none" d="M223.5,586.5h151a5,5,0,0,1,5,5v217a5,5,0,0,1,-5,5h-151a5,5,0,0,1,-5,-5v-217a5,5,0,0,1,5,-5z"></path><g id="node_text3" fill="black"><text id="kity_text_81" text-rendering="inherit" font-size="12" dy=".8em" y="794.7000000476837" x="279.5">宋铁麟</text></g><image id="kity_image_127" xmlns:xlink="http://www.w3.org/1999/xlink" xlink:href="https://imgsa.baidu.com/baike/c0%3Dbaike80%2C5%2C5%2C80%2C26/sign=67b15f4a462309f7f362a54013676796/9358d109b3de9c82f9a3b3516c81800a18d8432d.jpg" x="228.5" y="591.5" width="141" height="200"></image></g><g id="minder_node5"><g id="node_expander3" display="none" style="cursor: pointer;"><path id="kity_path_177" fill="white" stroke="gray" d="M485.5,580.5A6,6,0,1,1,473.5,580.5A6,6,0,1,1,485.5,580.5"></path><path id="kity_path_178" fill="none" stroke="gray"></path></g><path id="node_outline4" fill="none" stroke="none" d="M424.5,586.5h110a5,5,0,0,1,5,5v167a5,5,0,0,1,-5,5h-110a5,5,0,0,1,-5,-5v-167a5,5,0,0,1,5,-5z"></path><g id="node_text4" fill="black"><text id="kity_text_83" text-rendering="inherit" font-size="12" dy=".8em" y="744.7000000476837" x="460.5">任尔琪</text></g><image id="kity_image_128" xmlns:xlink="http://www.w3.org/1999/xlink" xlink:href="https://imgsa.baidu.com/baike/w%3D268/sign=c2b36b9cc9177f3e1034fb0b48ce3bb9/5366d0160924ab188450181d35fae6cd7b890b51.jpg" x="429.5" y="591.5" width="100" height="150"></image></g><g id="minder_node6"><g id="node_expander4" display="none" style="cursor: pointer;"><path id="kity_path_180" fill="white" stroke="gray" d="M645.5,580.5A6,6,0,1,1,633.5,580.5A6,6,0,1,1,645.5,580.5"></path><path id="kity_path_181" fill="none" stroke="gray"></path></g><path id="node_outline5" fill="none" stroke="none" d="M584.5,586.5h110a5,5,0,0,1,5,5v167a5,5,0,0,1,-5,5h-110a5,5,0,0,1,-5,-5v-167a5,5,0,0,1,5,-5z"></path><g id="node_text5" fill="black"><text id="kity_text_85" text-rendering="inherit" font-size="12" dy=".8em" y="744.7000000476837" x="620.5">贾蕴高</text></g><image id="kity_image_129" xmlns:xlink="http://www.w3.org/1999/xlink" xlink:href="http://s9.sinaimg.cn/orignal/4bdeaafcg77d320fdaf08&amp;690" x="589.5" y="591.5" width="100" height="150"></image></g><g id="minder_node7"><g id="node_expander8" style="cursor: pointer;"><path id="kity_path_192" fill="white" stroke="gray" d="M943,313.5A6,6,0,1,1,931,313.5A6,6,0,1,1,943,313.5"></path><path id="kity_path_193" fill="none" stroke="gray" d="M932.5,313.5L941.5,313.5"></path></g><path id="node_outline9" fill="rgb(238, 243, 246)" stroke="rgb(115, 161, 191)" d="M848.5,320.5h177a3,3,0,0,1,3,3v225a3,3,0,0,1,-3,3h-177a3,3,0,0,1,-3,-3v-225a3,3,0,0,1,3,-3z" stroke-width="1"></path><g id="node_text9" fill="black"><text id="kity_text_93" text-rendering="inherit" font-size="14" dy=".8em" y="529.4000000953674" x="915.5">郭云深</text></g><image id="kity_image_133" xmlns:xlink="http://www.w3.org/1999/xlink" xlink:href="http://imgsrc.baidu.com/baike/pic/item/0df3d7ca7bcb0a464f8938c46b63f6246a60afa0.jpg" x="865.5" y="326.5" width="143" height="200"></image></g><g id="minder_node8"><g id="node_expander6" display="none" style="cursor: pointer;"><path id="kity_path_186" fill="white" stroke="gray" d="M830.5,580.5A6,6,0,1,1,818.5,580.5A6,6,0,1,1,830.5,580.5"></path><path id="kity_path_187" fill="none" stroke="gray"></path></g><path id="node_outline7" fill="none" stroke="none" d="M744.5,586.5h160a5,5,0,0,1,5,5v217a5,5,0,0,1,-5,5h-160a5,5,0,0,1,-5,-5v-217a5,5,0,0,1,5,-5z"></path><g id="node_text7" fill="black"><text id="kity_text_89" text-rendering="inherit" font-size="12" dy=".8em" y="794.7000000476837" x="805.5">孙禄堂</text></g><image id="kity_image_131" xmlns:xlink="http://www.w3.org/1999/xlink" xlink:href="http://imgsrc.baidu.com/baike/pic/item/a9d3fd1f4134970aa80e3fbc96cad1c8a7865d27.jpg" x="749.5" y="591.5" width="150" height="200"></image></g><g id="minder_node9"><g id="node_expander7" display="none" style="cursor: pointer;"><path id="kity_path_189" fill="white" stroke="gray" d="M1048.5,580.5A6,6,0,1,1,1036.5,580.5A6,6,0,1,1,1048.5,580.5"></path><path id="kity_path_190" fill="none" stroke="gray"></path></g><path id="node_outline8" fill="none" stroke="none" d="M954.5,586.5h176a5,5,0,0,1,5,5v217a5,5,0,0,1,-5,5h-176a5,5,0,0,1,-5,-5v-217a5,5,0,0,1,5,-5z"></path><g id="node_text8" fill="black"><text id="kity_text_91" text-rendering="inherit" font-size="12" dy=".8em" y="794.7000000476837" x="1023.5">王芗斋</text></g><image id="kity_image_132" xmlns:xlink="http://www.w3.org/1999/xlink" xlink:href="https://imgsa.baidu.com/baike/c0%3Dbaike80%2C5%2C5%2C80%2C26/sign=06216eecf8dcd100d991f07313e22c75/622762d0f703918f9d0af92b513d269758eec47c.jpg" x="959.5" y="591.5" width="166" height="200"></image></g><g id="minder_node10"><g id="node_expander16" style="cursor: pointer;"><path id="kity_path_216" fill="white" stroke="gray" d="M1712.5,313.5A6,6,0,1,1,1700.5,313.5A6,6,0,1,1,1712.5,313.5"></path><path id="kity_path_217" fill="none" stroke="gray" d="M1702,313.5L1711,313.5"></path></g><path id="node_outline17" fill="rgb(238, 243, 246)" stroke="rgb(115, 161, 191)" d="M1589.5,320.5h234a3,3,0,0,1,3,3v225a3,3,0,0,1,-3,3h-234a3,3,0,0,1,-3,-3v-225a3,3,0,0,1,3,-3z" stroke-width="1"></path><g id="node_text17" fill="black"><text id="kity_text_109" text-rendering="inherit" font-size="14" dy=".8em" y="529.4000000953674" x="1685.5">刘奇兰</text></g><image id="kity_image_141" xmlns:xlink="http://www.w3.org/1999/xlink" xlink:href="http://static.duwenxue.com/attachs/image/143/143030/201604/20160424121105-23952.jpg" x="1606.5" y="326.5" width="200" height="200"></image></g><g id="minder_node11"><g id="node_expander12" style="cursor: pointer;"><path id="kity_path_204" fill="white" stroke="gray" d="M1457,579.5A6,6,0,1,1,1445,579.5A6,6,0,1,1,1457,579.5"></path><path id="kity_path_205" fill="none" stroke="gray" d="M1446.5,579.5L1455.5,579.5"></path></g><path id="node_outline13" fill="none" stroke="none" d="M1378.5,585.5h145a5,5,0,0,1,5,5v217a5,5,0,0,1,-5,5h-145a5,5,0,0,1,-5,-5v-217a5,5,0,0,1,5,-5z"></path><g id="node_text13" fill="black"><text id="kity_text_101" text-rendering="inherit" font-size="12" dy=".8em" y="793.7000000476837" x="1431.5">李存义</text></g><image id="kity_image_137" xmlns:xlink="http://www.w3.org/1999/xlink" xlink:href="http://imgsrc.baidu.com/baike/pic/item/4ec2d5628535e5dd8306b4f876c6a7efce1b62ea.jpg" x="1383.5" y="590.5" width="135" height="200"></image></g><g id="minder_node12"><g id="node_expander9" display="none" style="cursor: pointer;"><path id="kity_path_195" fill="white" stroke="gray" d="M1264.5,836.5A6,6,0,1,1,1252.5,836.5A6,6,0,1,1,1264.5,836.5"></path><path id="kity_path_196" fill="none" stroke="gray"></path></g><path id="node_outline10" fill="none" stroke="none" d="M1181.5,842.5h154a5,5,0,0,1,5,5v217a5,5,0,0,1,-5,5h-154a5,5,0,0,1,-5,-5v-217a5,5,0,0,1,5,-5z"></path><g id="node_text10" fill="black"><text id="kity_text_95" text-rendering="inherit" font-size="12" dy=".8em" y="1050.7000000476837" x="1239.5">尚云祥</text></g><image id="kity_image_134" xmlns:xlink="http://www.w3.org/1999/xlink" xlink:href="http://photocdn.sohu.com/20130109/Img362934329.jpg" x="1186.5" y="847.5" width="144" height="200"></image></g><g id="minder_node13"><g id="node_expander10" display="none" style="cursor: pointer;"><path id="kity_path_198" fill="white" stroke="gray" d="M1464,836.5A6,6,0,1,1,1452,836.5A6,6,0,1,1,1464,836.5"></path><path id="kity_path_199" fill="none" stroke="gray"></path></g><path id="node_outline11" fill="none" stroke="none" d="M1385.5,842.5h145a5,5,0,0,1,5,5v217a5,5,0,0,1,-5,5h-145a5,5,0,0,1,-5,-5v-217a5,5,0,0,1,5,-5z"></path><g id="node_text11" fill="black"><text id="kity_text_97" text-rendering="inherit" font-size="12" dy=".8em" y="1050.7000000476837" x="1445.5">薛颠</text></g><image id="kity_image_135" xmlns:xlink="http://www.w3.org/1999/xlink" xlink:href="http://imgsrc.baidu.com/baike/pic/item/4610b912c8fcc3ce1b590ea99245d688d53f208b.jpg" x="1390.5" y="847.5" width="135" height="200"></image></g><g id="minder_node14"><g id="node_expander11" display="none" style="cursor: pointer;"><path id="kity_path_201" fill="white" stroke="gray" d="M1657,836.5A6,6,0,1,1,1645,836.5A6,6,0,1,1,1657,836.5"></path><path id="kity_path_202" fill="none" stroke="gray"></path></g><path id="node_outline12" fill="none" stroke="none" d="M1580.5,842.5h141a5,5,0,0,1,5,5v217a5,5,0,0,1,-5,5h-141a5,5,0,0,1,-5,-5v-217a5,5,0,0,1,5,-5z"></path><g id="node_text12" fill="black"><text id="kity_text_99" text-rendering="inherit" font-size="12" dy=".8em" y="1050.7000000476837" x="1631.5">唐维禄</text></g><image id="kity_image_136" xmlns:xlink="http://www.w3.org/1999/xlink" xlink:href="https://imgsa.baidu.com/baike/c0%3Dbaike80%2C5%2C5%2C80%2C26/sign=0512101137a85edfee81f671283d6246/f703738da97739120a38fc20fb198618367ae251.jpg" x="1585.5" y="847.5" width="131" height="200"></image></g><g id="minder_node15"><g id="node_expander15" style="cursor: pointer;"><path id="kity_path_213" fill="white" stroke="gray" d="M1965.5,580.5A6,6,0,1,1,1953.5,580.5A6,6,0,1,1,1965.5,580.5"></path><path id="kity_path_214" fill="none" stroke="gray" d="M1955,580.5L1964,580.5"></path></g><path id="node_outline16" fill="none" stroke="none" d="M1884.5,586.5h150a5,5,0,0,1,5,5v217a5,5,0,0,1,-5,5h-150a5,5,0,0,1,-5,-5v-217a5,5,0,0,1,5,-5z"></path><g id="node_text16" fill="black"><text id="kity_text_107" text-rendering="inherit" font-size="12" dy=".8em" y="794.7000000476837" x="1940.5">张占魁</text></g><image id="kity_image_140" xmlns:xlink="http://www.w3.org/1999/xlink" xlink:href="http://d.hiphotos.baidu.com/baike/w%3D268%3Bg%3D0/sign=d0c7fce742a98226b8c12c21b2b9de3c/9a504fc2d5628535dedeacb391ef76c6a7ef6361.jpg" x="1889.5" y="591.5" width="140" height="200"></image></g><g id="minder_node16"><g id="node_expander13" display="none" style="cursor: pointer;"><path id="kity_path_207" fill="white" stroke="gray" d="M1856.5,837.5A6,6,0,1,1,1844.5,837.5A6,6,0,1,1,1856.5,837.5"></path><path id="kity_path_208" fill="none" stroke="gray"></path></g><path id="node_outline14" fill="none" stroke="none" d="M1770.5,843.5h160a5,5,0,0,1,5,5v217a5,5,0,0,1,-5,5h-160a5,5,0,0,1,-5,-5v-217a5,5,0,0,1,5,-5z"></path><g id="node_text14" fill="black"><text id="kity_text_103" text-rendering="inherit" font-size="12" dy=".8em" y="1051.7000000476837" x="1831.5">韩慕侠</text></g><image id="kity_image_138" xmlns:xlink="http://www.w3.org/1999/xlink" xlink:href="http://imgsrc.baidu.com/baike/pic/item/3812b31bb051f8198de2c9e6dbb44aed2f73e753.jpg" x="1775.5" y="848.5" width="150" height="200"></image></g><g id="minder_node17"><g id="node_expander14" display="none" style="cursor: pointer;"><path id="kity_path_210" fill="white" stroke="gray" d="M2070.5,837.5A6,6,0,1,1,2058.5,837.5A6,6,0,1,1,2070.5,837.5"></path><path id="kity_path_211" fill="none" stroke="gray"></path></g><path id="node_outline15" fill="none" stroke="none" d="M1980.5,843.5h168a5,5,0,0,1,5,5v217a5,5,0,0,1,-5,5h-168a5,5,0,0,1,-5,-5v-217a5,5,0,0,1,5,-5z"></path><g id="node_text15" fill="black"><text id="kity_text_105" text-rendering="inherit" font-size="12" dy=".8em" y="1051.7000000476837" x="2045.5">姜容樵</text></g><image id="kity_image_139" xmlns:xlink="http://www.w3.org/1999/xlink" xlink:href="http://imgsrc.baidu.com/baike/pic/item/d6ca7bcb0a46f21f8bd16650f4246b600d33aecf.jpg" x="1985.5" y="848.5" width="158" height="200"></image></g><g id="minder_node18"><g id="node_expander18" style="cursor: pointer;"><path id="kity_path_222" fill="white" stroke="gray" d="M2290.5,313.5A6,6,0,1,1,2278.5,313.5A6,6,0,1,1,2290.5,313.5"></path><path id="kity_path_223" fill="none" stroke="gray" d="M2280,313.5L2289,313.5"></path></g><path id="node_outline19" fill="rgb(238, 243, 246)" stroke="rgb(115, 161, 191)" d="M2196.5,320.5h176a3,3,0,0,1,3,3v225a3,3,0,0,1,-3,3h-176a3,3,0,0,1,-3,-3v-225a3,3,0,0,1,3,-3z" stroke-width="1"></path><g id="node_text19" fill="black"><text id="kity_text_113" text-rendering="inherit" font-size="14" dy=".8em" y="529.4000000953674" x="2262.5">车毅斋</text></g><image id="kity_image_143" xmlns:xlink="http://www.w3.org/1999/xlink" xlink:href="http://imgsrc.baidu.com/baike/pic/item/e1bf87257d54985c34a80f87.jpg" x="2213.5" y="326.5" width="142" height="200"></image></g><g id="minder_node19"><g id="node_expander17" display="none" style="cursor: pointer;"><path id="kity_path_219" fill="white" stroke="gray" d="M2290.5,580.5A6,6,0,1,1,2278.5,580.5A6,6,0,1,1,2290.5,580.5"></path><path id="kity_path_220" fill="none" stroke="gray"></path></g><path id="node_outline18" fill="none" stroke="none" d="M2198.5,586.5h172a5,5,0,0,1,5,5v217a5,5,0,0,1,-5,5h-172a5,5,0,0,1,-5,-5v-217a5,5,0,0,1,5,-5z"></path><g id="node_text18" fill="black"><text id="kity_text_111" text-rendering="inherit" font-size="12" dy=".8em" y="794.7000000476837" x="2265.5">布学宽</text></g><image id="kity_image_142" xmlns:xlink="http://www.w3.org/1999/xlink" xlink:href="https://imgsa.baidu.com/baike/c0%3Dbaike92%2C5%2C5%2C92%2C30/sign=cb10f5f60b46f21fdd395601974d0005/d058ccbf6c81800a05023203b03533fa838b47d3.jpg" x="2203.5" y="591.5" width="162" height="200"></image></g><g id="minder_node20"><g id="node_expander21" style="cursor: pointer;"><path id="kity_path_231" fill="white" stroke="gray" d="M2509,313.5A6,6,0,1,1,2497,313.5A6,6,0,1,1,2509,313.5"></path><path id="kity_path_232" fill="none" stroke="gray" d="M2498.5,313.5L2507.5,313.5"></path></g><path id="node_outline22" fill="rgb(238, 243, 246)" stroke="rgb(115, 161, 191)" d="M2418.5,320.5h169a3,3,0,0,1,3,3v205a3,3,0,0,1,-3,3h-169a3,3,0,0,1,-3,-3v-205a3,3,0,0,1,3,-3z" stroke-width="1"></path><g id="node_text22" fill="black"><text id="kity_text_119" text-rendering="inherit" font-size="14" dy=".8em" y="509.40000009536743" x="2481.5">白西园</text></g><image id="kity_image_144" xmlns:xlink="http://www.w3.org/1999/xlink" xlink:href="http://image82.360doc.com/DownloadImg/2015/02/1213/50112154_1" x="2435.5" y="326.5" width="135" height="180"></image></g><g id="minder_node21"><g id="node_expander19" display="none" style="cursor: pointer;"><path id="kity_path_225" fill="white" stroke="gray" d="M2460.5,560.5A6,6,0,1,1,2448.5,560.5A6,6,0,1,1,2460.5,560.5"></path><path id="kity_path_226" fill="none" stroke="gray"></path></g><path id="node_outline20" fill="none" stroke="none" d="M2430.5,566.5h48a5,5,0,0,1,5,5v12a5,5,0,0,1,-5,5h-48a5,5,0,0,1,-5,-5v-12a5,5,0,0,1,5,-5z"></path><g id="node_text20" fill="black"><text id="kity_text_115" text-rendering="inherit" font-size="12" dy=".8em" y="569.7000000476837" x="2435.5">齐德元</text></g></g><g id="minder_node22"><g id="node_expander20" display="none" style="cursor: pointer;"><path id="kity_path_228" fill="white" stroke="gray" d="M2558.5,560.5A6,6,0,1,1,2546.5,560.5A6,6,0,1,1,2558.5,560.5"></path><path id="kity_path_229" fill="none" stroke="gray"></path></g><path id="node_outline21" fill="none" stroke="none" d="M2528.5,566.5h48a5,5,0,0,1,5,5v12a5,5,0,0,1,-5,5h-48a5,5,0,0,1,-5,-5v-12a5,5,0,0,1,5,-5z"></path><g id="node_text21" fill="black"><text id="kity_text_117" text-rendering="inherit" font-size="12" dy=".8em" y="569.7000000476837" x="2533.5">齐德林</text></g></g><g id="minder_node23"><g id="node_expander22" display="none" style="cursor: pointer;"><path id="kity_path_234" fill="white" stroke="gray" d="M2678,313.5A6,6,0,1,1,2666,313.5A6,6,0,1,1,2678,313.5"></path><path id="kity_path_235" fill="none" stroke="gray"></path></g><path id="node_outline23" fill="rgb(238, 243, 246)" stroke="rgb(115, 161, 191)" d="M2633.5,320.5h77a3,3,0,0,1,3,3v20a3,3,0,0,1,-3,3h-77a3,3,0,0,1,-3,-3v-20a3,3,0,0,1,3,-3z" stroke-width="1"></path><g id="node_text23" fill="black"><text id="kity_text_121" text-rendering="inherit" font-size="14" dy=".8em" y="324.40000009536743" x="2650.5">张树德</text></g></g><g id="minder_node24"><g id="node_expander23" display="none" style="cursor: pointer;"><path id="kity_path_237" fill="white" stroke="gray" d="M2800.5,313.5A6,6,0,1,1,2788.5,313.5A6,6,0,1,1,2800.5,313.5"></path><path id="kity_path_238" fill="none" stroke="gray"></path></g><path id="node_outline24" fill="rgb(238, 243, 246)" stroke="rgb(115, 161, 191)" d="M2756.5,320.5h76a3,3,0,0,1,3,3v20a3,3,0,0,1,-3,3h-76a3,3,0,0,1,-3,-3v-20a3,3,0,0,1,3,-3z" stroke-width="1"></path><g id="node_text24" fill="black"><text id="kity_text_123" text-rendering="inherit" font-size="14" dy=".8em" y="324.40000009536743" x="2773.5">刘晓兰</text></g></g><g id="minder_node25"><g id="node_expander24" display="none" style="cursor: pointer;"><path id="kity_path_240" fill="white" stroke="gray" d="M2923.5,313.5A6,6,0,1,1,2911.5,313.5A6,6,0,1,1,2923.5,313.5"></path><path id="kity_path_241" fill="none" stroke="gray"></path></g><path id="node_outline25" fill="rgb(238, 243, 246)" stroke="rgb(115, 161, 191)" d="M2878.5,320.5h78a3,3,0,0,1,3,3v20a3,3,0,0,1,-3,3h-78a3,3,0,0,1,-3,-3v-20a3,3,0,0,1,3,-3z" stroke-width="1"></path><g id="node_text25" fill="black"><text id="kity_text_125" text-rendering="inherit" font-size="14" dy=".8em" y="324.40000009536743" x="2895.5">李镜斋</text></g></g></g></g></svg>